<svg preserveAspectRatio="none" overflow="visible" style="display: block;" width="26.25" height="26.25" viewBox="0 0 26.25 26.25" fill="none" xmlns="http://www.w3.org/2000/svg">
<g id="Group">
<path id="Vector" d="M13.125 26.25C20.3737 26.25 26.25 20.3737 26.25 13.125C26.25 5.87626 20.3737 0 13.125 0C5.87626 0 0 5.87626 0 13.125C0 20.3737 5.87626 26.25 13.125 26.25Z" fill="#FF9240"/>
<path id="Vector_2" d="M9.1335 18.948C8.8815 18.8595 8.7945 18.6945 8.9115 18.5565C8.9115 18.5565 8.97675 18.4988 9.04275 18.471C9.34875 18.3413 10.545 17.868 12.4402 17.7278C12.4402 17.7278 13.2105 17.676 13.9185 17.727C15.651 17.8523 16.7422 18.2633 17.1262 18.432C17.1262 18.432 17.2928 18.4905 17.3535 18.5775C17.4465 18.711 17.3557 18.8648 17.1157 18.948H9.13275H9.1335Z" fill="#F5172B"/>
<path id="Vector_3" d="M19.8885 12.5573C19.1977 12.0713 18.2445 12.237 17.7585 12.9278L13.4963 18.9413H17.277L20.259 14.6873C20.745 13.9965 20.5785 13.0433 19.8885 12.5573Z" fill="white"/>
<path id="Vector_4" d="M18.1335 15.1793C17.8327 14.9678 17.418 15.0398 17.2065 15.3405L14.664 18.9412H16.323L18.2947 16.1063C18.5062 15.8055 18.4342 15.3908 18.1335 15.1793Z" fill="#F5172B"/>
<g id="Group_2">
<path id="Vector_5" d="M16.5068 11.7495C17.4039 11.7495 18.1312 11.0222 18.1312 10.125C18.1312 9.22781 17.4039 8.5005 16.5068 8.5005C15.6096 8.5005 14.8822 9.22781 14.8822 10.125C14.8822 11.0222 15.6096 11.7495 16.5068 11.7495Z" fill="black"/>
<path id="Vector_6" d="M9.74325 11.7495C10.6404 11.7495 11.3677 11.0222 11.3677 10.125C11.3677 9.22781 10.6404 8.5005 9.74325 8.5005C8.84606 8.5005 8.11875 9.22781 8.11875 10.125C8.11875 11.0222 8.84606 11.7495 9.74325 11.7495Z" fill="black"/>
</g>
</g>
</svg>
